# xmcd
#
# Track frame offsets: 
#        150
#        20127
#        38343
#        53930
#        78321
#        98166
#        115842
#        133582
#        151995
#        167249
#
# Disc length: 2448 seconds
#
# Revision: 1
# Processed by: cddbd v1.5.2PL0 Copyright (c) Steve Scherf et al.
# Submitted via: ExactAudioCopy v0.99pb3
#
DISCID=77098e0a
DTITLE=The Mary Onettes - The Mary Onettes
DYEAR=2007
DGENRE=Indie Pop
TTITLE0=Pleasure Songs
TTITLE1=Lost
TTITLE2=Void
TTITLE3=The Laughter
TTITLE4=Slow
TTITLE5=The Companion
TTITLE6=Explosions
TTITLE7=Henry
TTITLE8=Under The Guillotine
TTITLE9=Still
EXTD=
EXTT0=
EXTT1=
EXTT2=
EXTT3=
EXTT4=
EXTT5=
EXTT6=
EXTT7=
EXTT8=
EXTT9=
PLAYORDER=
